/* XPM */
static char *_ab485f9ba2b4460e6527e10f3fe5528VSIXbuqbFkNUDXND[] = {
/* columns rows colors chars-per-pixel */
"64 64 190 2 ",
"   c #010101",
".  c #0B0602",
"X  c #0D0904",
"o  c #0D0C0B",
"O  c #130B04",
"+  c #1A0E05",
"@  c #130E0A",
"#  c #180E09",
"$  c #15110C",
"%  c #1B120A",
"&  c #191107",
"*  c #1F1F1F",
"=  c #1C1612",
"-  c #23150B",
";  c #26190C",
":  c #2A1B0D",
">  c #291907",
",  c #331E0E",
"<  c #241A12",
"1  c #2B1C12",
"2  c #241F1C",
"3  c #321F11",
"4  c #1F201F",
"5  c #37240E",
"6  c #38230F",
"7  c #39280F",
"8  c #2C2214",
"9  c #20201F",
"0  c #2B2918",
"q  c #2A2519",
"w  c #352214",
"e  c #3B2412",
"r  c #3C2912",
"t  c #33251A",
"y  c #3E291A",
"u  c #39261A",
"i  c #36321C",
"p  c #3A331C",
"a  c #201F20",
"s  c #212121",
"d  c #2B2B2B",
"f  c #333333",
"g  c #432D0F",
"h  c #422712",
"j  c #442C14",
"k  c #4D2E15",
"l  c #422C1B",
"z  c #4A2E18",
"x  c #502F17",
"c  c #4B3414",
"v  c #4B301D",
"b  c #4C3A19",
"n  c #493616",
"m  c #533217",
"M  c #54341B",
"N  c #5D3719",
"B  c #573D1A",
"V  c #5E391A",
"C  c #583717",
"Z  c #633B1D",
"A  c #4E3524",
"S  c #523723",
"D  c #553823",
"F  c #5B3B24",
"G  c #503828",
"H  c #5F3F28",
"J  c #633E23",
"K  c #683F20",
"L  c #603F28",
"P  c #57411B",
"I  c #674314",
"U  c #694515",
"Y  c #64441A",
"T  c #6A491C",
"R  c #64481D",
"E  c #724B1E",
"W  c #7D541C",
"Q  c #7F581F",
"!  c #574F2A",
"~  c #5A4728",
"^  c #5B512E",
"/  c #5A5130",
"(  c #6D4324",
")  c #6D4B21",
"_  c #644129",
"`  c #6B4528",
"'  c #704626",
"]  c #734926",
"[  c #714728",
"{  c #764A29",
"}  c #794C2B",
"|  c #655123",
" . c #6A5326",
".. c #705020",
"X. c #7F512F",
"o. c #6F4B32",
"O. c #764E32",
"+. c #794E30",
"@. c #7E5130",
"#. c #7E573D",
"$. c #73523A",
"%. c #414141",
"&. c #535353",
"*. c #84581E",
"=. c #8B5E23",
"-. c #80512F",
";. c #805F28",
":. c #855635",
">. c #875837",
",. c #885937",
"<. c #865939",
"1. c #895A38",
"2. c #895938",
"3. c #895938",
"4. c #926425",
"5. c #996725",
"6. c #94662A",
"7. c #9A6728",
"8. c #9A6929",
"9. c #936A2D",
"0. c #9F7229",
"q. c #957134",
"w. c #A67125",
"e. c #A97426",
"r. c #AC7628",
"t. c #A8762B",
"y. c #B27523",
"u. c #BB7E2A",
"i. c #B67E2C",
"p. c #A87D35",
"a. c #C37F26",
"s. c #855D40",
"d. c #BD812A",
"f. c #AD863A",
"g. c #C3842B",
"h. c #CD8C2D",
"j. c #C78C2F",
"k. c #D38D2A",
"l. c #D98F2A",
"z. c #DC912D",
"x. c #D4902E",
"c. c #CE8F34",
"v. c #D59334",
"b. c #DB9230",
"n. c #E79527",
"m. c #ED9926",
"M. c #E6952A",
"N. c #E9962A",
"B. c #E6992F",
"V. c #EB9A2A",
"C. c #EE9A2A",
"Z. c #ED9B2C",
"A. c #ED9B2C",
"S. c #F09C2C",
"D. c #E49933",
"F. c #ED9F32",
"G. c #E09631",
"H. c #F09F30",
"J. c #D8A23E",
"K. c #EDA12F",
"L. c #EEA233",
"P. c #EDA63A",
"I. c #EEA93B",
"U. c #E8A537",
"Y. c #F0A233",
"T. c #F1A739",
"R. c #F1AB3D",
"E. c #B3A55C",
"W. c #D9A340",
"Q. c #E7A844",
"!. c #EBAA42",
"~. c #F2AE42",
"^. c #EFB242",
"/. c #F3B144",
"(. c #F3B549",
"). c #F2BA4A",
"_. c #F4BD51",
"`. c #F4C355",
"'. c #F5C558",
"]. c #F9CC5E",
"[. c #F6CE61",
"{. c #F8CF62",
"}. c #F7D265",
"|. c #F9D164",
" X c #FBDA6B",
".X c #FCD76A",
"XX c #FDDF72",
"oX c #FDE173",
"OX c #FCE378",
"+X c #F6E178",
/* pixels */
"%.d d d d d d d d d d d d d d d d d d d d d d d d d d s s s s s s s s s s s d d d d d d d d d d d d d d d d d d d d d d d d d &.",
"*                                                   o                                                                         f ",
"*                                                   o                                                                         f ",
"*     . % - - < < : : < ; : - - - % O O O & - ; ; < <                     . % - : : - % & + % : < < < < < < < < : - - - O     f ",
"*     % [ { } >.,.3.3.3.,.,.X.} { ' Z V Z ( +.L L H u                     X l D H O.@.Z Z Z ( >.3.3.3.3.3.3.3.3.>.{ } [ w     f ",
"*     - [ { } >.,.3.3.,.,.,.X.} } ' Z V V ( _ .                                   G @.Z Z Z ( >.3.3.3.3.3.3.3.3.>.{ } [ 3     f ",
"s     - [ { } >.,.,.3.3.,.3.X.} { ' Z V V ( _ .                                   A X.Z Z Z ( >.3.3.3.3.3.3.3.3.>.{ } { 3     f ",
"*     - [ { } >.,.3.3.3.,.3.-.} { ' Z V V ( _ .                                   A @.Z Z Z ( >.3.3.3.3.3.3.3.3.>.} } [ 3     f ",
"*     - [ { } >.,.,.,.,.,.,.@.} { ' Z N V ( _ .   . : B V B ~ ^ / ! B C C r .     G @.Z Z Z ( >.3.3.3.3.3.3.3.3.>.} } [ 3     f ",
"*     - [ { } >.,.,.,.,.,.,.X.} { ' Z N N ( _ .   X U F.F.L.`.oXoX}.~.Z.F.8.&     A @.Z V Z ( >.3.3.3.3.3.3.3.3.>.} } [ 3     f ",
"*     - [ { } >.,.3.3.,.,.,.X.} { ( Z N N ( _     X I V.C.K.`.oXXX|.P.C.C.7.&     G @.Z V Z ( :.>.>.>.>.>.>.>.>.>.{ { [ 3     f ",
"*     - [ { } >.,.3.3.,.,.,.X.} { ' Z N V ( _     X I V.C.L.`.oXXX[.P.V.Z.5.&     G @.Z V Z Z { } } } } } } } } } } } [ 3     f ",
"s     - [ { } >.3.3.,.3.,.,.X.} { ' Z N N ( _ .   X I C.Z.L.`.oXXX{.T.A.A.7.&     G @.Z V V Z { { { { { { } { } } { } [ w     f ",
"*     - [ { } 3.3.3.3.3.3.3.-.} { ' Z N N ( _ .   X I A.Z.L.`.oXXX|.T.A.S.7.&     A @.Z V V Z { { { { { { } } { { } } [ w     f ",
"*     - [ { } } } } } } } } { { { ( Z N N K F .   X I A.Z.Y.`.oXXX|.R.C.Z.7.&     G @.Z N V Z { { { { { { { } } { } } [ w     f ",
"*     - [ { { } { { { { { { { { { ( Z N N K F .   X I Z.Z.Y.`.oXXX|.R.A.S.8.&     A @.Z V V Z { { { { { } { { { } { } [ 3     f ",
"*     - [ { { { { { { { { { { { { ( N e 6 e w .   X I Z.Z.L.`.oXoX|.R.S.S.8.&     t v e e m Z { { { { { { { } { } } } [ 3     f ",
"*     % ( ] [ [ [ [ [ [ ] [ ] ' ] ( x .           X I C.Z.L.`.oXoX|.R.S.Z.8.&           . e Z ' [ [ [ { { [ [ [ [ [ { ( 1     f ",
"a     O N N N N N N N N N N N N N N k .           X I V.Z.L.`.oXXX|.R.S.Z.8.&           . e N N N N N N N N N N N N N N -     f ",
"9     O N N N N N N N N N N N N N N k .           X I V.Z.L.`.oXXX|.R.C.Z.7.&           . e N N N N N N N N N N N V V N -     f ",
"a     O l y y y l l y y l y l y y y w .     - ] ) ] t.^.(.).`.[.[.`.P.C.Z.u.E Y Y j     . 1 l l l l l l l l l l l l l y <     f ",
"9     # $                                   j L.Z.Z./.XXXX.X`.~./.R.L.Z.C.Z.A.Z.Z.5.                                    1     f ",
"s     % $                                   g L.A.A./. XXX.X`.~./.~.Y.Z.Z.C.C.C.C.5.                                    t     f ",
"s     - $                                   j F.Z.Z.(.XXXX.X`././.~.Y.S.Z.C.C.m.m.5.                                    t     f ",
"s o o = @     $ i i i i i i i i i i p p p p  .I.P.P.)..X X|._././.~.T.L.L.L.P.P.P.p.i i p i i i p p p p p p i p q X     2 o o d ",
"X             ! +XoXoXoXoXoXoXoXoXoXoXOXOXOXoXoXXX X].(.(.(./././././././.)..XXXoXoXoXoXoXoXoXoXoXoXoXoXoXOXoXoXE.0             ",
".             ! XXXXXXXXXXXXXXXXXXXXXXXXoXoXXXoXXXXX]././././././././././.)..XXXXXoXoXoXoXoXoXoXoXXXXXXXXXoXoXXXE.0             ",
".             ! XXoXoXoXoXoXoXoXoXoXoXoXoXoXoXXXXXXX]././././././././././.)..XXXXXXXoXoXoXoXoXoXoXoXoXoXoXoXoXXXE.0             ",
".             ~ '.'.'.'.'.'.'.'.'.'.'.'.'.'.'.'.'.'._././././././././././.(.`.'.'.'.`.`.`.`.`.`.`.).(.(.(.(.(./.f.8             ",
".             B /.~.~.~.~.~.~./././././././././././././././././././././././.~.~././.~.~.~.~.^.~.R.L.C.C.C.A.C.C.e.:             ",
".             P (././././././././././././././././././././././.~.~./././././././././././.~.~././.~.L.C.C.Z.Z.Z.Z.r.:             ",
"X             P ).).).(./././././././././././././././././././././././././././././././.~.~./././.R.L.C.C.Z.Z.K.K.r.:             ",
"s o X = @     % b b b 0.L.L.L.L.L.L.L.L.L.L.P././././././././././././././././././.T.L.L.L.L.L.L.F.Z.C.C.k.W c c r X     q o o d ",
"s     # $             W A.A.Z.Z.Z.Z.C.C.Z.Z.Y././././././././././././././././././.T.C.C.C.C.C.C.C.C.C.C.a.c             t     f ",
"9     # $             W B.A.C.Z.Z.Z.C.Z.Z.Z.Y././././././././././././././././././.T.C.Z.Z.Z.Z.Z.Z.C.C.C.a.c             t     f ",
"a     & $             W F.L.L.L.L.Z.A.C.Z.Z.H././././././././././././././././././.T.A.C.C.Z.L.L.L.F.F.F.g.c             t     f ",
"4     - #.<.<.~ @     . O O X X X O 5 l.Z.C.C.A.A.L.P././././././././././.R.L.L.F.Z.C.C.n.*.O O O O O O O .     t $.s.#.u     f ",
"*     % :.,.>._ @                   ; k.C.C.C.C.C.S.Y././././././././././.T.S.S.S.S.C.C.n.Q                     t O.3.:.w     f ",
"s     % >.,.3._ @                   ; h.B.C.C.Z.Z.Z.P./././.~.~./././././.R.F.Z.Z.Z.C.C.M.Q                     t @.3.:.w     f ",
"9     O K ( K v @                   ; h.C.C.V.V.C.Z.P./.~.~.~.~.~.~./././.R.Z.A.A.Z.C.C.M.Q                     1 V Z Z -     f ",
"*     X N N N m j h h : .           ; h.C.S.S.R.~.~.R.F.Z.A.Z.Z.Z.Z.T.~./././.~.~.T.C.C.M.Q             $ e h h k N V N -     f ",
"s     X N N N N N N N w X           ; h.A.S.L.~.~.~.T.A.Z.Z.Z.A.A.A.P.~./././.^./.P.C.C.M.Q             - M N N N V V N -     f ",
"s     X Z Z Z Z Z Z Z e X           ; h.Z.S.L.R.~.~.R.Z.Z.Z.Z.S.S.Z.T.~.~./.~.~./.T.C.C.n.Q             < F ( ( ( ( ( K -     f ",
"s     O :.>.:.:.:.:.:.A X           > h.A.Z.L.~.~.~.R.Z.Z.S.Z.Z.Z.Z.P.T.P.P.P.P.P.L.V.B.M.*..           1 o.>.>.>.>.>.:.3     f ",
"s     # >.,.>.>.>.>.>.A X   @ 9.U.L.K.R././.R.Z.V.V.V.N.N.N.N.N.N.n.n.n.n.N.n.n.N.B.R./.R.P.P.P.v.R     1 o.>.>.>.,.,.:.3     f ",
"s     # >.,.>.3.3.3.,.A o   @ 6.M.C.Z.~././.R.Z.C.C.V.N.N.N.N.N.N.n.N.N.N.N.N.N.N.B.I.~.~.T.Z.Z.l.R     1 o.3.3.3.,.>.:.1     f ",
"s     # >.,.>.@.} } } v X   @ 6.M.V.Z.~.~.~.~.F.B.B.B.N.N.N.N.N.n.n.n.n.n.n.N.N.N.V.T.~.~.P.Z.Z.k.R     < _ } } } >.,.:.1     f ",
"s     # >.,.>.} { { { l X   @ 9.D.L.L.R.~.~.R.Z.C.C.A.L.U.P.P.P.P.P.U.L.L.F.V.n.n.n.P.R.R.P.L.F.x.R     < L { { } :.,.:.1     f ",
"s     # >.,.>.F @           @ q.Q./.~.Z.A.B.B.N.N.z.=.                    : a.M.N.N.Z.Z.Z.P./.~.W.|             t O.,.:.1     f ",
"9     # >.>.>.F @           @ q.Q.~.~.S.S.C.C.N.N.z.=.                    > a.M.M.N.V.C.Z.T.~./.J.|             t } >.:.<     f ",
"9     # { { { D @           @ q.Q.~.~.Z.Z.Z.Z.N.N.z.=.                    > a.M.n.n.V.V.A.P.~.~.W.|             t ` { ' -     f ",
"9     # { { { D @     O : , r p.Q.~.~.Z.Z.C.B.g.g.i...    . @ & & # .     - w.d.g.k.V.N.C.L.I.I.J.;.: , ; X     t ` { ' -     f ",
"s     # { { { D @     T v.D.D.P.~./.I.B.V.N.d.+ . .       @ A { { ` ;       . X X T B.N.N.Z.Z.C.Z.B.G.D.r.5     t ` { ' -     f ",
"s     # { { { D @     T z.S.C.L.~.~.R.Z.V.N.u.O           @ A { { ` ;             Y B.N.N.V.V.V.C.V.N.N.y.5     t ` { ' -     f ",
"9     # { { { D @     T z.C.C.L.!.~.I.B.V.N.u.O           @ A { { ` ;             Y B.n.N.N.V.V.V.N.N.N.y.5     t ` { [ -     f ",
"2     # { { { D @     T b.C.Z.L.R.R.P.j.g.g.8.X     . $ $ < D { { ` u & & #       b d.u.u.l.V.N.V.N.n.N.y.5     t ` { [ -     f ",
"*     # ' ] [ S @     T z.C.Z.Z.Z.F.c.> O O O       8 O.} } { { { { { { { J @         . O 4.B.N.V.N.n.N.y.5     t ` ] ( -     f ",
"4     O N V V j o     T z.V.C.C.A.S.j.O             ; Z N N N N N N V N N k X           X 4.B.N.V.N.N.N.y.7     1 M N N %     f ",
"4     O N N N j o     T b.Z.Z.B.Z.A.j.O             < V N N N N N N N N N k X           X 4.B.V.V.N.N.N.y.7     1 M N N %     f ",
"*     O N V N z < # # B 0.e.e.e.e.e.4.O     . $ # & w V N V V N N N N N N m 1 < < $     X ) e.w.w.w.w.w.=.r # # u M V N %     f ",
"*     . , e 6 6 e e e - .                   X e e e w , , , , , , , , , , , , , 6 -                     @ : , 3 , , , , X     f ",
"*                                                                                                       . .                   f ",
"*                                                                                                       . .                   f ",
"*                                       . . .                                                           . .                   f "
};