/* XPM */
static char *_63d018d085e4c14fa1a8246ba8feaceLgiUql6WsiFfEyDp[] = {
/* columns rows colors chars-per-pixel */
"64 64 178 2 ",
"   c #010101",
".  c #080606",
"X  c #070807",
"o  c #090807",
"O  c #0C0B0A",
"+  c #140B06",
"@  c #120E0B",
"#  c #14110F",
"$  c #1B110B",
"%  c #100F10",
"&  c #0E1214",
"*  c #131212",
"=  c #1B1613",
"-  c #1B1817",
";  c #151719",
":  c #161A1C",
">  c #1C1C1C",
",  c #251107",
"<  c #23150B",
"1  c #2A160D",
"2  c #27190F",
"3  c #291A0F",
"4  c #311C0F",
"5  c #271A11",
"6  c #2A1B11",
"7  c #231E1B",
"8  c #331E11",
"9  c #381F11",
"0  c #3F210D",
"q  c #2D2017",
"w  c #20201F",
"e  c #2C221C",
"r  c #342014",
"t  c #3F2111",
"y  c #31231A",
"u  c #3B271D",
"i  c #3D2A1C",
"p  c #1C1F22",
"a  c #201F20",
"s  c #1F2325",
"d  c #222324",
"f  c #2A2624",
"g  c #2C2A27",
"h  c #2B2B2B",
"j  c #3C2B21",
"k  c #312D2A",
"l  c #34302D",
"z  c #333333",
"x  c #393531",
"c  c #41210C",
"v  c #432413",
"b  c #42271B",
"n  c #462B1E",
"m  c #4D2D1A",
"M  c #552D16",
"N  c #502E1B",
"B  c #592F18",
"V  c #54311C",
"C  c #5A321B",
"Z  c #663514",
"A  c #6A3615",
"S  c #683718",
"D  c #643B1E",
"F  c #6C3819",
"G  c #723D1A",
"H  c #403128",
"J  c #4E3A2A",
"K  c #543622",
"L  c #583621",
"P  c #5B3A25",
"I  c #553D2D",
"U  c #5B3C28",
"Y  c #443F3A",
"T  c #4B3D36",
"R  c #633C23",
"E  c #6A3E22",
"W  c #603D28",
"Q  c #76401C",
"!  c #7C431F",
"~  c #46403C",
"^  c #4A443F",
"/  c #6B4225",
"(  c #64422A",
")  c #6A442A",
"_  c #6E492E",
"`  c #734223",
"'  c #7E4623",
"]  c #7E4824",
"[  c #724728",
"{  c #744A2A",
"}  c #7A4D2C",
"|  c #7F512F",
" . c #604736",
".. c #6F4A30",
"X. c #714B30",
"o. c #7D4E31",
"O. c #414141",
"+. c #4C4641",
"@. c #4D4842",
"#. c #524B45",
"$. c #554E49",
"%. c #56504B",
"&. c #59524D",
"*. c #5E5852",
"=. c #575452",
"-. c #635B54",
";. c #685F57",
":. c #655D58",
">. c #685F59",
",. c #66615B",
"<. c #6B635C",
"1. c #70675E",
"2. c #71685F",
"3. c #6D6661",
"4. c #6F6860",
"5. c #716760",
"6. c #746B64",
"7. c #786E66",
"8. c #776F69",
"9. c #797066",
"0. c #777069",
"q. c #7C746C",
"w. c #7F7770",
"e. c #804724",
"r. c #864D27",
"t. c #884D26",
"y. c #874D28",
"u. c #884E29",
"i. c #87512A",
"p. c #8D522C",
"a. c #94572E",
"s. c #94582F",
"d. c #865736",
"f. c #895430",
"g. c #875836",
"h. c #875836",
"j. c #885937",
"k. c #875938",
"l. c #895938",
"z. c #885938",
"x. c #965731",
"c. c #965931",
"v. c #995C33",
"b. c #A15F36",
"n. c #9F6036",
"m. c #9E643C",
"M. c #A16237",
"N. c #A26338",
"B. c #A26740",
"V. c #80776F",
"C. c #80776E",
"Z. c #82786E",
"A. c #807770",
"S. c #807770",
"D. c #857C73",
"F. c #897F76",
"G. c #8A8177",
"H. c #8D8177",
"J. c #8C8177",
"K. c #8D8279",
"L. c #8F857B",
"P. c #8D847B",
"I. c #8F867D",
"U. c #8D837A",
"Y. c #91847B",
"T. c #91867C",
"R. c #92867D",
"E. c #91867D",
"W. c #92887E",
"Q. c #92887E",
"!. c #948A80",
"~. c #978C82",
"^. c #948A81",
"/. c #988D84",
"(. c #998E85",
"). c #9A8F85",
"_. c #9A9086",
"`. c #9C9288",
/* pixels */
"O.h h h h h h h h h h h h h h h h h h h h h h h h h h h h h h h h h h h h h h h h h h h h h h h h h h h h h h h h h h h h h h =.",
">                                                                                                                             z ",
">                                                                                                                             z ",
">     . $ < < 5 5 3 3 5 2 3 < < < $ + =                                                   O $ 3 5 5 5 5 5 5 5 5 3 < < < +     z ",
">     $ [ { } g.j.z.z.z.j.j.| } } [ D i                                                   3 / d.z.k.k.k.k.k.k.z.d.{ } { r     z ",
">     < [ { } g.j.z.z.j.j.j.| } } [ D i                                                   6 / d.z.z.z.z.z.z.z.z.d.{ } { 8     z ",
"d     < [ { } d.j.j.z.( y y q 6 6 6 5 $.0.8.8.8.8.0.0.0.0.0.0.8.0.0.0.0.8.8.0.8.5.5.5.1.<.#.6 y y y y q y ) z.z.d.{ } { 8     z ",
">     < [ } } g.j.z.z.K               &.W.!.!.~.(.(.(.(.(.(.(.(.(.(.(.(.(.(.(.!.T.T.T.T.Y.&.              U z.z.d.} } { 8     z ",
">     < [ } } g.j.j.j.K               &.!.!.!.~.(.(.(.(.(.(.(.(.(.(.(.(.(./.~.!.W.T.T.I.Y.&.              U z.z.d.} } { 8     z ",
">     < [ } } d.X._ _ I k k k k h h h ,.W.W.!.S.q.V.V.V.V.A.q.q.V.A.V.V.q.q.q.q.0.0.G.I.T.<.l l l l l l x  ....._ { } { 8     z ",
">     < [ } } g.#     x K.F.G.H.H.H.K.L.T.W.~.,.:.:.:.:.:.:.:.:.:.:.:.:.:.:.:.:.:.:.V.T.T.L.K.K.K.K.H.L.W.$.    O ) { { 8     z ",
">     < [ { } g.#     x L.G.G.K.K.K.K.L.T.T.~.,.:.:.:.:.:.:.:.:.:.-.:.:.:.:.:.:.:.-.A.T.I.L.L.L.L.L.Y.I.W.$.    O ) } { 8     z ",
"d     < [ { } g.#     x L.K.K.K.L.L.L.W._._.`.3.,.,.,.,.,.,.,.,.,.,.,.,.,.,.,.:.:.:.S./.!.W.T.T.T.T.Y.I.W.$.    O ) } { r     z ",
">     5 $       G.!.^.I.G.G.K.q.-.-.-.k       O O O O O O O O O O O O O O O O o o o       h -.-.-.8.L.L.Y.W.^.W.T.7           z ",
">     5 $       F.K.K.H.H.K.H.q.-.-.-.k                                                   h :.-.-.7.L.L.L.I.L.L.K.-           z ",
">     5 $       F.K.K.H.H.K.H.q.-.-.-.k                                                   g -.-.-.7.L.L.L.L.L.L.K.>           z ",
">     5 $       F.K.K.Z.1.5.1.&.f f f u t v v m N N m m m m m V L P K N N m m V V V v v v u f f f +.5.5.5.D.Y.T.L.-           z ",
">     5 $       F.K.K.q.-.-.-.~       c Z Z Z ! u.u.u.u.u.u.p.v.M.M.a.e.] ' ' r.u.u.F Z Z 8       k -.-.-.V.I.Y.Y.-           z ",
"a     $ +       D.H.K.q.-.-.-.~       0 Z Z Z ' u.u.u.u.u.u.p.n.M.M.s.] ] ' ' r.r.u.F Z Z 8       k -.-.-.Z.T.T.L.-           z ",
"w O O = 7 - - - 0.C.q.5.$.$.$.T 1 1 < M G G G ' u.u.u.u.u.u.p.v.M.M.s.] ] ] ] u.r.u.Q G G M , < , H $.$.$.8.S.D.D.l f f 7 O O h ",
"      O &.;.;.:.-.-.-.Y       m f.i.i.a.n.M.N.u.u.u.u.u.u.u.p.n.M.N.c.e.e.] ] u.r.u.v.N.N.i.Z S A C       +.-.-.-.-.-.:.&.O     ",
"      o &.-.-.-.-.-.-.Y       m u.r.r.a.M.n.M.u.u.u.u.u.u.u.p.n.M.N.c.e.e.e.e.r.u.r.v.M.M.u.Z Z Z B       +.-.-.-.-.-.-.%.O     ",
"      o &.:.-.-.-.-.-.~       m u.t.u.a.M.n.M.u.u.u.u.u.u.u.p.n.M.N.v.r.e.e.e.r.u.u.v.M.M.u.A A Z C       +.-.-.-.-.-.-.%.O     ",
"      o 0.G.G.G.G.G.G.-.      P n.v.v.v.M.M.M.u.u.u.u.u.u.u.p.n.M.N.v.r.r.r.u.u.u.u.v.N.M.s.e.e.e.E       -.F.F.F.F.F.F.8.*     ",
"O     o q.W.W.T.T.T.T.:.      R N.M.M.M.M.M.M.u.u.u.u.u.u.u.p.n.M.N.v.r.r.r.u.u.u.u.v.M.M.c.r.r.u.`       :.Y.Y.Y.Y.T.T.q.*     ",
"      o q.W.T.T.T.T.T.:.      R N.M.M.M.M.M.M.u.u.u.u.u.u.u.p.v.M.N.v.r.u.u.u.u.u.u.v.M.M.c.r.r.u.`       :.L.L.T.L.T.Y.q.*     ",
"      o q.W.W.T.0.7.7.$.      R N.M.M.M.M.M.N.u.u.u.u.u.u.u.p.n.M.N.v.u.u.u.u.u.u.u.v.M.M.c.r.r.u.`       &.0.0.0.K.T.T.q.*     ",
"      o S.W.W.!.;.-.-.Y       R N.M.M.M.M.M.N.i.u.u.u.u.u.u.p.n.M.M.v.u.u.u.u.u.u.u.v.M.M.c.r.t.u.`       ^ -.-.-.F.T.T.V.*     ",
"        V.W.W.!.:.-.-.~       R N.M.M.M.M.M.N.i.u.u.u.u.u.u.p.n.M.M.v.u.u.u.u.u.u.u.v.N.M.s.r.t.r.`       ^ -.-.-.F.T.W.q.*     ",
"      o S.^.!.~.;.-.-.~       R N.M.M.M.M.M.N.i.u.u.u.u.u.u.p.n.M.M.v.u.u.u.u.u.u.u.v.N.M.c.r.t.u.`       ^ -.-.-.F.I.T.q.*     ",
"        %.-.-.-.-.-.-.~       R N.M.M.M.M.M.N.i.u.u.u.u.u.u.p.n.M.M.v.u.u.u.u.u.u.u.c.N.M.s.r.t.u.`       +.-.-.-.-.-.-.$.O     ",
"        &.-.-.-.-.-.-.~       R N.M.N.M.M.M.N.u.u.u.u.u.u.u.p.b.M.N.v.u.u.u.u.u.u.r.v.M.M.s.r.t.u.`       +.-.-.-.-.-.-.%.O     ",
"o     o &.-.-.-.-.-.-.Y       W B.m.m.N.N.N.N.u.u.u.u.u.u.u.p.M.M.N.v.u.u.u.u.u.r.r.v.M.M.s.r.t.u.`       ^ -.-.-.:.-.-.&.O     ",
"        8.F.F.F.F.D.D.&.      = e d d { N.N.M.u.u.u.u.u.u.u.p.M.M.N.v.u.u.u.u.u.r.r.v.M.M.s.r.t.u.`       :.F.F.F.F.F.F.8.*     ",
"O     o q.W.W.W.W.W.W.:.      ; d d d { N.M.N.u.u.u.u.u.u.u.p.n.M.M.v.u.u.u.u.r.r.r.c.b.n.a.r.t.r.`       ,.T.W.W.W.W.T.q.*     ",
"O     o q.W.W.W.W.W.W.:.      ; d d d { N.M.N.u.u.u.u.u.u.u.p.n.M.M.v.u.r.u.r.r.r.r.c.n.M.x.r.t.r.`       ,.T.T.T.W.W.T.q.*     ",
"        S.W.W.W.W.W.W.:.      ; s p p { M.M.N.u.u.u.u.u.u.u.p.n.M.M.v.u.t.u.E V V V R / ( [ r.t.u.`       ,.T.T.T.W.W.T.q.*     ",
"      o S.W.W.W.W.W.T.:.      * : : : { M.M.N.u.u.u.u.u.u.u.p.n.M.M.v.u.t.u.n & & & ; : : j y.t.u.`       <.W.W.W.W.W.T.q.*     ",
"      o S.W.W.W.W.W.W.:.      * > > : [ M.M.M.u.u.u.u.u.u.u.p.n.M.M.v.u.t.u.n & & * ; : : j y.r.r.`       <.W.T.T.W.W.T.q.*     ",
"      o w.T.T.T.T.T.Y.-.      * ; ; ; / n.M.N.u.u.u.u.u.u.u.p.v.M.M.v.u.t.u.n & * * ; ; : j y.t.u.`     o ,.G.K.G.G.G.G.0.*     ",
"X       -.4.5.5.5.1.1.@.      i ( ( ( f.M.M.N.u.u.u.u.u.u.u.p.b.M.M.v.u.t.u.n       O O O r y.t.u.`       +.:.:.:.:.:.:.%.O     ",
"X       &.-.-.-.-.-.-.Y       R N.M.M.M.M.M.N.u.u.u.u.u.u.u.p.v.M.M.v.u.u.u.b             8 r.r.u.`       ^ -.-.-.-.-.-.%.O     ",
"o       &.-.-.-.-.-.-.Y       R N.M.M.M.M.M.M.u.u.u.u.u.u.u.p.v.M.M.v.r.r.u.b             8 r.r.u.`       ^ -.-.-.-.-.-.%.O     ",
"o       :.<.<.<.<.<.<.^       R N.M.M.M.M.M.N.i.u.u.u.u.u.u.p.b.M.M.v.r.r.r.C 8 8 8 4 8 8 V r.t.u.`       &.9.9.9.9.7.7.,.*     ",
"o     o S.^.^.^.^.!.W.:.      R N.M.M.M.M.M.M.u.u.u.u.u.u.u.p.v.M.M.v.u.u.t.u.u.u.u.v.N.n.c.r.r.r.`     o <.W.W.W.W.W.W.q.*     ",
"o     o A.T.T.T.T.T.W.:.      R N.M.M.M.M.M.N.u.u.u.u.u.u.u.p.n.M.n.v.u.u.u.u.r.r.r.c.M.n.s.r.t.u.`     o <.W.W.W.W.T.T.q.*     ",
"      o V.T.T.T.T.T.W.:.      R N.M.M.M.M.M.M.u.u.u.u.u.u.u.p.n.M.M.v.r.u.u.r.r.r.r.v.M.M.s.r.t.u.`     o <.W.W.W.T.T.T.q.*     ",
"      o q.T.T.T.T.T.W.:.      R N.M.M.M.M.M.M.u.u.u.u.u.u.u.p.n.M.n.c.u.u.u.r.r.r.r.v.M.M.s.r.t.u.`     o <.T.W.W.W.T.T.q.*     ",
"      o w.W.W.T.T.T.T.:.      R M.n.M.M.M.M.M.u.u.u.u.u.u.u.p.n.M.N.c.u.u.u.u.u.u.u.v.M.M.s.r.r.u.`       <.T.W.W.W.T.T.q.*     ",
"      o V.W.W.T.W.T.W.:.      R N.N.N.N.M.M.M.u.u.u.u.u.u.u.p.v.M.M.c.u.u.u.u.u.u.u.v.M.n.s.r.r.u.`       3.W.W.!.!.W.W.q.*     ",
"O     . 3.q.q.q.q.q.0.$.      y I J J y.N.M.N.u.u.u.u.u.u.u.p.v.M.M.v.u.u.u.u.u.u.u.v.M.n.s.r.r.r.`       #.1.<.<.<.<.<.-.%     ",
"        %.-.-.-.-.-.-.Y       ; d d s { N.M.N.u.u.u.u.u.u.u.p.v.M.n.v.u.u.u.u.u.u.u.v.M.n.a.r.r.r.`     o ^ -.-.-.-.-.-.$.O     ",
"X       %.-.-.-.-.-.-.Y       ; d d s { M.M.M.u.u.u.u.u.u.u.p.n.n.n.c.u.u.u.u.u.u.u.v.M.M.a.r.r.u.`     o ^ -.-.-.-.-.-.%.O     ",
"        $.-.-.-.-.-.-.Y       ; d p p ) M.M.M.u.u.u.u.u.u.u.p.n.M.n.c.u.u.u.u.u.u.u.v.M.M.c.r.t.u.`       #.,.,.>.,.,.:.&.@     ",
"        8.G.K.K.K.G.G.*.      * : : : / M.M.M.u.u.u.u.u.u.u.p.n.M.N.c.u.u.u.u.u.u.u.v.M.M.c.r.t.r.`     o 3.W.W.W.!.^.!.A.*     ",
"O     . q.T.T.T.T.Y.Y.-.      * ; ; : / N.M.N.u.u.u.u.u.u.u.p.n.M.N.c.u.u.u.u.u.u.r.v.M.M.c.r.r.u.`     o <.W.W.W.W.W.T.q.*     ",
"O     . q.T.Y.T.T.Y.Y.-.      * ; ; : / N.n.N.u.u.u.u.u.u.u.p.n.M.M.v.r.u.u.u.u.u.u.v.M.M.c.r.r.r.`     o <.W.W.W.!.W.W.V.*     ",
"O       -.<.<.<.<.1.2.#.      r K K K } M.M.M.u.u.u.u.u.u.u.p.n.M.M.v.r.u.u.u.u.u.u.v.M.M.c.r.r.u.`       #.,.,.,.,.,.,.&.O     ",
"        %.-.-.-.-.-.-.~       N i.i.u.s.M.M.N.u.u.u.u.u.u.t.p.n.M.n.v.r.u.u.u.r.t.u.v.M.n.c.r.u.t.`     o +.-.-.-.-.-.-.%.O     ",
"        %.-.-.-.-.-.-.Y       V p.i.t.s.M.N.N.u.u.u.u.u.u.u.p.v.M.M.v.r.u.u.r.r.r.r.v.M.v.a.r.t.t./       @.-.-.-.-.-.-.%.O     ",
"      . +.#.#.#.#.#.#.x       b E E E [ } } o.E E E E E E E / } } { [ E E E E D E E { } } [ R E E L       Y $.$.$.$.%.$.+.O     ",
"                                                                                                                                ",
"                                                                                                                                ",
"O                                                                                                                             O "
};
