/* XPM */
static char *_7851d4425af403dfca05295a5707056b5BbU0aOEUm6Tlu1[] = {
/* columns rows colors chars-per-pixel */
"64 64 156 2 ",
"   c #000000",
".  c #090603",
"X  c #0E0904",
"o  c #140B06",
"O  c #1B0F07",
"+  c #160D08",
"@  c #190E09",
"#  c #1D1109",
"$  c #1F1F1F",
"%  c #22150B",
"&  c #27190F",
"*  c #2B1A0F",
"=  c #331E0D",
"-  c #271910",
";  c #2C1C10",
":  c #201F1F",
">  c #311E11",
",  c #1F201F",
"<  c #37200E",
"1  c #38210F",
"2  c #20201F",
"3  c #342013",
"4  c #392210",
"5  c #201F20",
"6  c #202020",
"7  c #2B2B2B",
"8  c #333333",
"9  c #573215",
"0  c #5A3417",
"q  c #5C3619",
"w  c #5F381A",
"e  c #633B1D",
"r  c #693E1E",
"t  c #673F20",
"y  c #683F20",
"u  c #6B401F",
"i  c #6C4323",
"p  c #714727",
"a  c #714626",
"s  c #724727",
"d  c #704525",
"f  c #714626",
"g  c #724827",
"h  c #734827",
"j  c #734827",
"k  c #704628",
"l  c #714728",
"z  c #724728",
"x  c #714728",
"c  c #724828",
"v  c #734828",
"b  c #734928",
"n  c #734929",
"m  c #73492A",
"M  c #744828",
"N  c #744928",
"B  c #744929",
"V  c #754929",
"C  c #754A29",
"Z  c #764A29",
"A  c #764B29",
"S  c #774B29",
"D  c #754A2A",
"F  c #764A2A",
"G  c #764B2A",
"H  c #774B2A",
"J  c #774B2B",
"K  c #774C29",
"L  c #764C2A",
"P  c #774C2A",
"I  c #774C2B",
"U  c #764A29",
"Y  c #784B29",
"T  c #784B2A",
"R  c #784B2B",
"E  c #784C2A",
"W  c #784D2A",
"Q  c #784C2B",
"!  c #794C2B",
"~  c #784D2B",
"^  c #794D2B",
"/  c #7A4D2B",
"(  c #784C2C",
")  c #794D2C",
"_  c #7A4D2C",
"`  c #7A4E2C",
"'  c #7A4E2D",
"]  c #7B4E2D",
"[  c #7B4F2D",
"{  c #7B4E2E",
"}  c #7B4F2E",
"|  c #7C4E2D",
" . c #7C4F2D",
".. c #7C4F2E",
"X. c #7A4D2C",
"o. c #7C502E",
"O. c #7C502F",
"+. c #7E502F",
"@. c #7F512F",
"#. c #7D502F",
"$. c #7D5130",
"%. c #7E5030",
"&. c #7F5030",
"*. c #7E5130",
"=. c #7F5130",
"-. c #7F5131",
";. c #7E5230",
":. c #7F5230",
">. c #7F5231",
",. c #7E5130",
"<. c #414141",
"1. c #535353",
"2. c #80512F",
"3. c #805231",
"4. c #815231",
"5. c #805331",
"6. c #815331",
"7. c #825332",
"8. c #825333",
"9. c #825432",
"0. c #825433",
"q. c #835534",
"w. c #845535",
"e. c #845634",
"r. c #845635",
"t. c #855635",
"y. c #855735",
"u. c #855636",
"i. c #855736",
"p. c #865736",
"a. c #875736",
"s. c #875737",
"d. c #845534",
"f. c #865836",
"g. c #875836",
"h. c #875837",
"j. c #875937",
"k. c #875837",
"l. c #885837",
"z. c #885937",
"x. c #895937",
"c. c #885837",
"v. c #875838",
"b. c #875938",
"n. c #875838",
"m. c #885838",
"M. c #885938",
"N. c #895938",
"B. c #885939",
"V. c #895939",
"C. c #8A5939",
"Z. c #885A38",
"A. c #895A38",
"S. c #885A39",
"D. c #895A39",
"F. c #885938",
/* pixels */
"<.7 7 7 7 7 7 7 7 7 7 7 7 7 7 7 7 7 7 7 7 7 7 7 7 7 7 7 7 7 7 7 7 7 7 7 7 7 7 7 7 7 7 7 7 7 7 7 7 7 7 7 7 7 7 7 7 7 7 7 7 7 7 1.",
"$                                                                                                                             8 ",
"$                                                                                                                             8 ",
"$     . # % % - - & & - & & % % % # o o o # % & & & & & % % % % % % % % % % % % & & % # # O # & - - - - - - - - & % % % o     8 ",
"$     # k S ' h.z.M.M.M.z.z.@.E Y a e w e i 0.M.M.M.M.M.0.E S E E Y S S S S S =.h.M.=.e e e i p.M.b.b.b.b.b.b.M.p.S P v 3     8 ",
"$     % k S ' h.z.M.M.z.z.z.@.E E a e w w i 8.M.M.M.M.M.8.E Y Y Y Y E Y Y Y E =.z.M.=.e e e i p.M.M.M.M.M.M.M.M.p.S E v >     8 ",
"6     % k S ' p.z.z.M.M.z.M.@.E Y a e w w i 8.M.M.M.M.z.8.E Y E E P Y S S S Y @.z.M.@.e e e i p.M.M.M.M.M.M.M.M.p.S E S >     8 ",
"$     % k Y | h.z.M.M.M.z.M.2.E Y a e w w i 0.M.M.M.M.z.8.E E Y Y Y Y P S S E =.z.M.=.e e e i p.M.M.M.M.M.M.M.M.p.P E v >     8 ",
"$     % k Y | h.z.z.z.z.z.z.=.E Y a e q w i 0.z.M.M.M.z.8.E S S S S S Y E P E =.z.M.=.e e e i p.M.M.M.M.M.M.M.M.p.P E v >     8 ",
"$     % k Y | p.z.z.z.z.z.z.@.E Y a e q q i 0.M.M.M.M.z.8.E Y S S S S P P P E =.z.M.=.e w e i p.M.M.M.M.M.M.M.M.p.P E v >     8 ",
"$     % k Y | h.z.M.M.z.z.z.@.E S i e q q i 0.M.z.h.p.p.8.E S S S S P S S Y E =.z.M.=.e w e i q.p.p.p.p.p.p.p.p.p.S S v >     8 ",
"$     % k S ' h.z.M.M.z.z.z.@.E S a e q w i 0.M.q.' E E E S S S S S P S P E E =.z.M.=.e w e e S E E E E ' E E E E P E v >     8 ",
"6     % k S ' h.M.M.z.M.z.z.@.E Y a e q q i 0.M.0.' S S P S S S S S S S Y E E =.h.M.=.e w w e S S S S S S E Y E P Y E v 3     8 ",
"$     % k S ' b.M.M.M.M.M.M.2.E S a e q q i 0.M.q.' S S P P S S S S S P P Y E =.h.M.=.e w w e S S S S S S P P S S P E v 3     8 ",
"$     % k S E ' ' ' ' E E E S S S i e q q y S ' E S S P P S S S S S P P P E E =.z.M.=.e q w e S S S S S S S P P Y P E v 3     8 ",
"$     % k S S E S S S S S S S S S i e q q t v E S S S S S P S S S S P E E E E =.h.M.=.e w w e S S S S S P S S S E S E v >     8 ",
"$     % k S S S S S S S S S S S S i e q q e v E E P S S P E E S S S S E E E ' =.z.M.=.e w w e S S S S Y S S P S P P E v >     8 ",
"$     # i h v v v v v v h v h a h i e q q e a S S P S S P E E P P P E E ' @.| =.p.p.' e q q e a v v v S S v v v v v S i ;     8 ",
"5     o q q q q q q q q q q q q q q q q q q q w e a E E E E E E E E E | p.z.p.' r e e w q q q q q q q q q q q q q q q q %     8 ",
"2     o q q q q q q q q q q q q q q q q q q q q e a E E E E E E E E E @.p.M.h.' e e e w q q q q q q q q q q q q q w w q %     8 ",
"5     o q q q q q q q q q q q q q q q q q q q q e h ' ' ' ' ' ' ' ' ' =.p.M.M.' e e e q q q q q q q q q q q q q q q q q %     8 ",
"2     @ a a a k k k k v k v i i i i i i i e e e e i i i i i i i i i i i a v a i e e e y i i i v S v v v v v v v a i i t %     8 ",
"6     % q.z.h.z.h.h.h.z.z.M.@.E E Y S E E a i r r e q q q q q q q q q q q q q e r r i j S S ' h.z.M.M.M.M.M.M.M.p.S S v ;     8 ",
"6     % q.z.z.M.z.h.z.z.h.M.@.E E P Y E E a i r r e q q q q q q q q q q q q q e r r i j S S ' p.z.M.M.M.M.M.M.M.p.S S k >     8 ",
"2     % q.h.h.h.p.p.p.p.p.h.| E S S P S E a i i r e q q w e e e e e e w q q q e r u i j S S ' p.p.h.z.M.M.M.M.M.p.S S a >     8 ",
"$     % q.h.h.' I ' ' ' ' ' E S S S P P E S S S v e q q e S ' ' ' ' ' a e q q e S S S S P S E ' ' ' p.M.M.M.M.M.p.S S h >     8 ",
"$     % q.h.h.P S S S S S S S S S S S P P E E P v e q q y S ' ' ' ' | h e q q i ' ' ' E P S S S S ' h.M.M.M.M.b.p.S S k >     8 ",
"$     % q.h.h.E S S S S S S S S S S S S P E P P S e q q t S @.@.@.@.@.S e q q i ' ' ' E P S S S S ' h.M.M.M.M.M.p.S S h >     8 ",
"$     # ' @.@.S S S S S S S S S S S S S S P S S v e q q e i h v v v S i e q q i E ' ' E S S S S S P =.=.=.=.=.=.=.S S h >     8 ",
":     # k S S S S S S S S S S S S S S S S S S S v e q q e i a a a a a i e q q y E E E P S S S S S S S S S S S S S S S i >     8 ",
",     # k S S S S S S S S S S S S S S S S S P P v e q q e i a a a a a i e q q i S E E S S S S S S S S S S S S S S S S i >     8 ",
"6     # k S S S S S S S S S S S S S S S S S S S v e q q e a S S v v v i e q q i ' ' E S S S S S S S S S S S S S S S S i *     8 ",
"6     # k S S S S S S S S S S S S S S S S ' 0.p.=.i q q e h S S S S S i e q w i p.p.0.E S S S S S S S S S S S S S S S i ;     8 ",
"6     @ v S S S S S S S S S S S S S S S S ' 0.p.=.i q q e h P S S S S i e q w i p.p.0.' S S S S S S S S S S S S S S S i ;     8 ",
"2     # v S S S S S S S S S S S S S S S S @.q.p.=.i q q e h Y E E E E i e q q i q.h.0.' S S S S S S S S S S S S S S S i *     8 ",
"6     # I ' ' ' ' ' ' | ' ' o.' | @.| ' ' ' | ' S e q q e i i i i i i i w q q y ' ' ' ' | | | @.@.@.@.@.@.@.@.@.@.@.@.I >     8 ",
",     # q.z.h.z.h.h.h.h.h.z.z.z.h.z.z.z.h.S e q q q q q q q q q q q q q q q q q w e y =.h.h.h.h.z.z.z.h.h.h.h.M.h.h.z.q.3     8 ",
"$     # q.z.h.h.h.h.h.h.h.h.h.h.h.z.z.z.M.S e q q q q q q q q q q q q q q q q q w w t =.h.h.z.z.z.h.h.h.h.h.h.h.b.M.M.q.3     8 ",
"6     # p.z.M.M.z.M.M.M.M.M.M.M.M.M.M.M.M.S e q q q q q q q q q q q q q q q q q q q e 8.M.M.z.M.M.M.M.M.M.M.M.M.M.M.M.q.3     8 ",
"2     o y i y i i i i y i t t e y y y e e e e e e a ' ' @.=.=.=.8.=.=.=.=.| ' a r r e e e e e e e e e e e e e e t e e e %     8 ",
"$     X q q q q q q q q q q q q q q q q q e e r i ' h.M.M.M.M.M.M.M.z.M.b.h.p.' i r r q q q q q q q q q q q q q q w w q %     8 ",
"6     X q q q q q q q q q q q q q q q q q e e r i | h.M.M.M.M.M.M.z.M.M.M.h.p.' i u r q q q q q q q q q q q q q q w w q %     8 ",
"6     X e e e e e e e e e e w w w q q q q e i i a @.h.M.h.p.q.8.8.8.8.8.=.=.=.' S j a e q q q e e e t i i i i i i i i t %     8 ",
"6     o q.p.q.q.0.q.0.0.0.q.E j j i e q q i @.p.p.h.z.h.8.E S S S S S S S S S ' p.p.@.e q q e a j S 8.p.p.p.p.p.p.p.p.8.>     8 ",
"6     + p.z.h.h.h.h.h.h.h.h.@.S S i e q q i 8.h.h.z.z.h.=.S S S S S S S S S S o.p.p.@.e q q e j S S 8.h.h.h.h.h.h.z.z.q.>     8 ",
"6     + p.z.h.b.M.M.z.h.z.M.@.S S i e q q i 8.h.h.z.z.h.=.P S S S S S S S S S ' 0.0.' e q q e j S S 8.M.M.M.M.M.M.z.h.q.;     8 ",
"6     + p.z.h.=.' ' ' ' ' ' P S S i e q q i 8.z.p.| ' ' E S S S S S S S S S S S S S a e q q e S S S E ' ' ' ' ' ' p.z.q.;     8 ",
"6     + p.z.h.' S S S S S S S S S i e q q i 8.z.0.' S S S S S S S S S S S S S v S S a e q q e S S S S S S S S S E q.z.q.;     8 ",
"6     @ p.z.h.| S S S S S S S S S i e q q i 8.z.0.' S S S S S S S S S S S S v v v S i e q q e S S S S S S S S S E q.z.q.;     8 ",
"2     @ p.p.p.@.P S S S S S S S S i e q q i 8.h.q.' S S S S S S S S S S S S S S S S a w q q e S S S S S S S S S S 8.p.8.-     8 ",
"2     + S Y S S S S S S S S S S S i w q q e S E E S S S S S S S S S S S S S S ' =.0.E e q q e S S S S S S S S S S S S a %     8 ",
"2     + S S S S S S S S S S S S S i w q q e a S S S S S S S S S S S S S S S S ' q.p.' e q q e S S S S S S S S S S S S a %     8 ",
"6     + S S S S S S S S S S S S S i q 9 0 e v P S S S S S S S S S S S S S S S ' p.p.' e q q e S S S S S S S S S S S S a %     8 ",
"6     + S S S S S S S S S S S E Y i q 0 0 t ' @.' S v S S S S S S S S S S S S ' p.p.' w q q e S S S S S S S S S S S S a %     8 ",
"2     @ v S S S S S S S S S S Y S i q 0 0 i =.p.=.P S S S S S S S S S S S S S ' p.p.' w q q e S Y S S S S S S S S S S k %     8 ",
":     + v S S S S S S S S S Y E E i q 0 0 i =.p.8.E S S S S S S S S S S S S S o.p.p.' e q q e S Y Y P S S S S S S S S k %     8 ",
"$     + a h v v v v v S S S S S S i q 9 0 y | q.@.S a a h h h S S j v v h a a E 8.8.S w q q e a S v v h h h v h v h h i %     8 ",
",     o q w w q w q q q w w e e e q 0 9 9 q r i r e q q q q q q q q w q q q q e r r e 0 0 0 q q w q w q q q q q q q q q #     8 ",
",     o q q q q q q q q q q w e e q 0 9 9 q e e e w q q q q q q q q q q q q q e e r e q 9 9 0 q q q q q q q q q q q q q #     8 ",
"$     o q w q q q q q q q q e e e q 0 9 9 q e e e w q q q w w q q q q q q q q e e r e q 0 0 q e w w w w w q q q q q w q #     8 ",
"$     . = 4 < < < < < < < < < = < = = = = = 4 4 1 = = = = = = = = = = = = = = = < 4 = = * = = = = = = = = = = = = = = = X     8 ",
"$                                                                                                                             8 ",
"$                                                                                                                             8 ",
"$                                                                                                                             8 "
};
