/* XPM */
static char *_6736a5e1049475dbdbe480c288dad07nCZ5AlNkCjuEbzJw[] = {
/* columns rows colors chars-per-pixel */
"64 64 164 2 ",
"   c #000000",
".  c #090504",
"X  c #070807",
"o  c #0A0807",
"O  c #0C0B0B",
"+  c #150000",
"@  c #1B0000",
"#  c #140B06",
"$  c #120E0B",
"%  c #14110F",
"&  c #1B110B",
"*  c #100F10",
"=  c #141212",
"-  c #1B1613",
";  c #1B1817",
":  c #1F1E1D",
">  c #220000",
",  c #2C0000",
"<  c #340000",
"1  c #3D0000",
"2  c #22150B",
"3  c #27190F",
"4  c #291A0F",
"5  c #271A11",
"6  c #2A1B11",
"7  c #231E1B",
"8  c #321F11",
"9  c #2D2017",
"0  c #23211F",
"q  c #2C211B",
"w  c #342012",
"e  c #30231A",
"r  c #3E2B1D",
"t  c #201F20",
"y  c #222120",
"u  c #292523",
"i  c #292826",
"p  c #2B2B2B",
"a  c #312D2A",
"s  c #34302D",
"d  c #333333",
"f  c #393531",
"g  c #400000",
"h  c #4F0000",
"j  c #540000",
"k  c #5C0000",
"l  c #630000",
"z  c #690000",
"x  c #750000",
"c  c #7C0000",
"v  c #633B1D",
"b  c #533723",
"n  c #5A3C27",
"m  c #563E2D",
"M  c #5B3C28",
"N  c #443E3A",
"B  c #46403C",
"V  c #4A443F",
"C  c #6E4424",
"Z  c #65432C",
"A  c #6A462B",
"S  c #6E492E",
"D  c #714626",
"F  c #714728",
"G  c #754A29",
"H  c #794D2B",
"J  c #7F512F",
"K  c #604736",
"L  c #6F4A30",
"P  c #714B30",
"I  c #414141",
"U  c #4C4641",
"Y  c #4D4842",
"T  c #524B45",
"R  c #554E49",
"E  c #56504B",
"W  c #59524D",
"Q  c #535353",
"!  c #5D5551",
"~  c #5E5852",
"^  c #635B54",
"/  c #685F57",
"(  c #655D58",
")  c #685F59",
"_  c #66615B",
"`  c #6B635C",
"'  c #70675E",
"]  c #71685F",
"[  c #6D6661",
"{  c #6F6860",
"}  c #716760",
"|  c #746B64",
" . c #786E66",
".. c #776F69",
"X. c #797066",
"o. c #777069",
"O. c #7C746C",
"+. c #7F7770",
"@. c #820000",
"#. c #8A0000",
"$. c #AC0000",
"%. c #B50000",
"&. c #BC0000",
"*. c #C10000",
"=. c #CE0000",
"-. c #D60000",
";. c #DC0000",
":. c #E50000",
">. c #EC0000",
",. c #F50000",
"<. c #FE0000",
"1. c #865736",
"2. c #875836",
"3. c #875836",
"4. c #885837",
"5. c #885937",
"6. c #895937",
"7. c #875938",
"8. c #875838",
"9. c #885838",
"0. c #885938",
"q. c #895938",
"w. c #895939",
"e. c #80776F",
"r. c #80776E",
"t. c #82786E",
"y. c #807770",
"u. c #807770",
"i. c #817870",
"p. c #857C73",
"a. c #897F75",
"s. c #897F76",
"d. c #898076",
"f. c #8B8177",
"g. c #8C8077",
"h. c #8E8277",
"j. c #8C8177",
"k. c #8D8178",
"l. c #8D8278",
"z. c #8E8279",
"x. c #8D847B",
"c. c #8F857B",
"v. c #8F857D",
"b. c #8F877C",
"n. c #8D837A",
"m. c #91847B",
"M. c #91867C",
"N. c #92867D",
"B. c #91877E",
"V. c #91867D",
"C. c #93887D",
"Z. c #91887E",
"A. c #93887F",
"S. c #92887E",
"D. c #948A80",
"F. c #968C81",
"G. c #978C83",
"H. c #948A81",
"J. c #988D84",
"K. c #998E85",
"L. c #9A8F85",
"P. c #998F86",
"I. c #9A9086",
"U. c #9C9288",
/* pixels */
"I p p p p p p p p p p p p p p p p p p p p p p p p p p p p p p p p p p p p p p p p p p p p p p p p p p p p p p p p p p p p p p Q ",
":                                                                                                                             d ",
":                                     .                                                                                       d ",
":     . & 2 2 5 5 4 4 5 3 4 2 2 2 & # - .   .   . . . . .         .     . . . . . .     X O & 4 5 5 5 5 5 5 5 5 4 2 2 2 #     d ",
":     & F G H 2.5.0.0.0.5.5.J H G D v r                                                   4 C 1.0.7.7.7.7.7.7.0.1.G H F w     d ",
":     2 F G H 2.5.0.0.5.5.5.J H H D v r                                                   6 C 1.0.0.0.0.0.0.0.0.1.G H F 8     d ",
"y     2 F G H 1.5.5.0.Z e e 9 6 6 6 5 R o.........o.o.o.o.o.o.o.o.o.o.o.....o...} } } ' ` T 6 e e e e 9 e A 0.0.1.G H G 8     d ",
":     2 F G H 2.5.0.0.b               W A.D.D.G.P.P.P.P.P.P.P.P.P.P.P.P.P.P.P.D.M.M.M.v.M.W               n 0.0.1.H H F 8     d ",
":     2 F G H 2.5.5.5.b               W D.D.D.G.P.P.P.P.P.P.P.P.P.P.P.P.P.J.G.D.A.M.M.v.M.!             . M 0.0.1.H H F 8     d ",
":     2 F G H 1.P S S m a a a a p p p _ A.A.D.i.O.e.e.e.e.y.O.O.e.y.e.e.O.O.O.O.o.o.d.v.M.` s s s s s s f K L L S G H F 8     d ",
":     2 F G H 2.%     f z.a.d.h.h.h.z.c.M.A.G._ ( ( ( ( ( ( ( ( ( ( ( ( ( ( ( ( ( ( e.M.M.c.z.z.z.z.h.c.A.R     O A G F 8     d ",
":     2 F G H 2.%     f c.d.d.z.z.z.z.c.M.M.G._ ( ( ( ( ( ( ( ( ( ^ ( ( ( ( ( ( ( ^ y.M.v.c.c.c.c.c.M.v.A.R     O A H F 8     d ",
"y     2 F G H 2.%     f c.z.z.z.c.c.c.A.I.I.U.[ _ _ _ _ _ _ _ _ _ _ _ _ _ _ _ ( ( ( i.J.D.C.M.M.M.M.M.v.A.R     O A H F w     d ",
":     5 &       f.D.H.v.f.f.z.O.^ ^ ^ a . . . o o o . . . . o o o O o O O O o o o o .     p ^ ^ ^ ..c.c.M.A.H.A.M.7           d ",
":     5 &       s.z.z.h.h.z.h.O.^ ^ ^ a                                                   p ( ^ ^  .c.c.c.v.c.c.z.;           d ",
":     5 &       s.z.z.h.h.z.h.O.^ ^ ! y                                                   - W ^ ^  .c.c.c.c.c.c.z.:           d ",
":     5 &       s.z.z.t.' } ' W i i =                                                       o : i U } } } p.c.c.c.;           d ",
":     5 &       s.z.z.O.^ ^ ^ B                                                                   a ^ ^ ^ e.v.M.M.;           d ",
"t     & #       p.h.z.O.^ ^ ^ N                                                                   0 ^ ^ ^ t.M.M.c.;           d ",
"0 o o - 7 ; ; ; o.r.O.} R R R q                                                                   O U R R ..i.p.p.s u u 7 O o p ",
".     o W / / ( ^ ^ ^ N       o                                                                         . U ^ ^ ^ ^ ^ ( W O     ",
".     o W ^ ^ ^ ^ ^ ^ N                                                                                 . U ^ ^ ^ ^ ^ ^ E O     ",
"X     o W ( ^ ^ ^ ^ ^ B                                                                                 . U ^ ^ ^ ^ ^ ^ E O     ",
".     o o.d.f.d.d.d.d.^                                                                                 . ^ a.a.a.a.a.a...=     ",
".     o O.M.A.M.M.M.M.(                                                                                 . ( M.M.M.M.M.M.O.=     ",
".     o O.M.M.M.M.M.M.(                                                                                 . ( c.c.M.c.M.M.O.=     ",
".     o O.A.A.M.o. . .R                                                                                 . W o.o.o.z.M.M.O.=     ",
".     o i.A.A.D./ ^ ^ N                                                                                 . V ^ ^ ^ a.M.M.e.=     ",
".     . e.A.C.D.( ^ ^ B                                                                                 . V ^ ^ ^ a.M.A.O.=     ",
".     o i.H.D.G./ ^ ^ B                                                                                 . V ^ ^ ^ s.v.M.O.=     ",
".     . E ^ ^ ^ ^ ^ ^ B                                                                                 . V ^ ^ ^ ^ ^ ^ R O     ",
".     . W ^ ^ ^ ^ ^ ^ B                                                                                 . V ^ ^ ^ ^ ^ ^ E O     ",
".     . W ^ ^ ^ ^ ^ ^ N                                                                                 . V ^ ^ ^ ^ ^ ^ W O     ",
".     . ..s.s.s.s.p.p.W                                                                                 . ( s.s.s.s.s.s...=     ",
"X     . O.A.A.A.A.A.A.(                                                                                 . _ M.A.A.A.A.M.O.=     ",
"X     . O.A.A.A.A.A.A.(                                                                                 . _ M.M.M.A.A.M.O.=     ",
".     . +.A.A.A.A.A.A.(                                                                                 . _ M.M.M.A.A.M.O.=     ",
".     o +.A.A.A.A.A.M.(                                                                                 . ` A.A.A.A.A.M.O.=     ",
".     o y.A.A.A.A.A.A.(                                                                                 . ` A.M.M.A.A.M.O.=     ",
".     o +.M.M.M.M.M.M.^       .                                                                         o _ f.f.f.f.f.d.o.=     ",
".     . ^ { } } } ' ' Y                                                                                 . U ( ( ( ( ( ( E O     ",
".     . W ^ ^ ^ ^ ^ ^ N                                                                                 . V ^ ^ ^ ^ ^ ^ E O     ",
".     . W ^ ^ ^ ^ ^ ^ N                                                                                 . V ^ ^ ^ ^ ^ ^ E O     ",
"o     . ( ` ` ` ` ` ` V                                                                                 . W X.X.X.X. . ._ =     ",
"X     o i.H.H.H.H.D.C.(                                                                                 o ` A.A.A.A.A.A.O.=     ",
"o     o y.M.M.M.M.M.A.(                                                                                 o ` A.A.A.A.M.M.O.=     ",
".     o e.M.M.M.M.M.A.(                                                                                 o ` A.A.A.M.M.M.O.=     ",
".     o O.M.M.M.M.M.A.(                                                                                 o ` M.A.A.A.M.M.O.=     ",
".     . O.A.A.M.M.M.M.(                                                   + @.+                         . ` M.A.A.A.M.M.O.=     ",
".     o e.A.C.M.A.M.A.(                                                   , <.,     @.,                 . [ C.C.D.D.A.A.O.=     ",
"o     . [ O.O.O.O.O.o.R                                                   . g .   . <.j                 . T ' ` ` ` ` ` ^ *     ",
".       E ^ ^ ^ ^ ^ ^ N                   @ k x h       , 1         1 ,   . g .   g <.c g g             . V ^ ^ ^ ^ ^ ^ R O     ",
"X       E ^ ^ ^ ^ ^ ^ N                 1 >.,.=.<.%.    < <.k     k ,.<   , <.,   *.<.-.*.*.+           . V ^ ^ ^ ^ ^ ^ E O     ",
".       R ^ ^ ^ ^ ^ ^ N               . :.$..   > >.x     c ,.> > ,.c     , <.,     <.j                 . T _ _ ) _ _ ( W $     ",
".       ..f.z.z.z.f.f.~               k <..       c -.      &.=.=.%.      , <.,     <.j                 o [ A.A.A.D.H.D.y.=     ",
"o     . O.M.M.M.M.M.M.^               #.,.*.*.*.*.-.<.      @ ,.,.+       , <.,     <.j                 o ` A.A.A.A.A.M.O.=     ",
"o     . O.M.M.M.M.M.M.^               @.>.g g g g g g       z ,.<.k       , <.,     <.j                 o ` C.C.C.C.A.A.e.=     ",
"o       ^ ` ` ` ` ' ] T               j <.@               , ,.l @.,.>     , <.,     <.k                 . T _ _ _ _ _ _ W O     ",
".       E ^ ^ ^ ^ ^ ^ B                 *.;.h .   < x   . ;.$.    *.=.    , <.,     -.%.g g             o U ^ ^ ^ ^ ^ ^ E O     ",
".       E ^ ^ ^ ^ ^ ^ N         .       . #.>.<.<.:.z   $.;..     @ >.#.  , <.,     j ,.<.<.@           . Y ^ ^ ^ ^ ^ ^ E O     ",
".       U T T T T T T f       o .             < @                                                       . N R R R R E R U O     ",
".                                                                                                                               ",
".                                                                                                                               ",
"O                                                                                                                             O "
};
