/* XPM */
static char *_2ba059653c0478fa75f5eb2452ed1cdN9Kfm3QtPVHtdwuw[] = {
/* columns rows colors chars-per-pixel */
"64 64 220 2 ",
"   c #010101",
".  c #0A0604",
"X  c #0D0805",
"o  c #0D0A09",
"O  c #070D07",
"+  c #140B06",
"@  c #160D0A",
"#  c #190E08",
"$  c #081307",
"%  c #091209",
"&  c #0E1C0C",
"*  c #071008",
"=  c #1C110A",
"-  c #12190F",
";  c #0F1C11",
":  c #1C1614",
">  c #1F1F1F",
",  c #131612",
"<  c #23150B",
"1  c #2B1B0E",
"2  c #27190F",
"3  c #331E0E",
"4  c #271A11",
"5  c #2B1B11",
"6  c #261F1D",
"7  c #311E11",
"8  c #311E18",
"9  c #0F200E",
"0  c #10210E",
"q  c #13280E",
"w  c #142914",
"e  c #1F201F",
"r  c #162815",
"t  c #193216",
"y  c #1B3419",
"u  c #1E3B1B",
"i  c #193B15",
"p  c #37200E",
"a  c #38210F",
"s  c #20201F",
"d  c #28251C",
"f  c #352214",
"g  c #3B2515",
"h  c #352219",
"j  c #39231A",
"k  c #3E2918",
"l  c #29351E",
"z  c #111925",
"x  c #201F20",
"c  c #18222E",
"v  c #1B2433",
"b  c #1C283A",
"n  c #202020",
"m  c #2B2B2B",
"M  c #362A24",
"N  c #213F20",
"B  c #333333",
"V  c #422B1A",
"C  c #492E1B",
"Z  c #4C2C15",
"A  c #512F1E",
"S  c #4B301B",
"D  c #47301F",
"F  c #5D3719",
"G  c #5E381B",
"H  c #59371A",
"J  c #633C1E",
"K  c #452C20",
"L  c #4D2E22",
"P  c #532E21",
"I  c #4D3123",
"U  c #443429",
"Y  c #4E3A2D",
"T  c #513422",
"R  c #5B3522",
"E  c #5C3924",
"W  c #5F3C29",
"Q  c #4C3E3B",
"!  c #4B3D32",
"~  c #523D34",
"^  c #633D23",
"/  c #653E2A",
"(  c #693E27",
")  c #673E31",
"_  c #1B4717",
"`  c #1C4A17",
"'  c #1D4619",
"]  c #1E4A19",
"[  c #1F501A",
"{  c #21431F",
"}  c #214B1B",
"|  c #22561F",
" . c #234422",
".. c #234B29",
"X. c #265921",
"o. c #295726",
"O. c #32532F",
"+. c #2E642B",
"@. c #2F682C",
"#. c #30662D",
"$. c #336D2F",
"%. c #34702F",
"&. c #356F32",
"*. c #356E31",
"=. c #346E31",
"-. c #36683E",
";. c #356936",
":. c #367033",
">. c #367133",
",. c #357132",
"<. c #377134",
"1. c #347032",
"2. c #397134",
"3. c #2F6731",
"4. c #4E443D",
"5. c #57493E",
"6. c #6C4425",
"7. c #6C462C",
"8. c #65412B",
"9. c #704627",
"0. c #724827",
"q. c #714728",
"w. c #714729",
"e. c #754A2A",
"r. c #784C2B",
"t. c #7A4D2C",
"y. c #7D502F",
"u. c #6C4836",
"i. c #734931",
"p. c #764B39",
"a. c #765037",
"s. c #427538",
"d. c #213143",
"f. c #26374C",
"g. c #273952",
"h. c #2E445F",
"j. c #376840",
"k. c #365375",
"l. c #385476",
"z. c #39567A",
"x. c #3B597D",
"c. c #365679",
"v. c #4B4242",
"b. c #574C43",
"n. c #5D5646",
"m. c #535353",
"M. c #62554C",
"N. c #6A5D4B",
"B. c #6E5143",
"V. c #765646",
"C. c #6A4D41",
"Z. c #7D6B5B",
"A. c #756555",
"S. c #6F604D",
"D. c #7B6E63",
"F. c #7C7266",
"G. c #845636",
"H. c #875837",
"J. c #885937",
"K. c #875938",
"L. c #895938",
"P. c #895938",
"I. c #82563F",
"U. c #815941",
"Y. c #815741",
"T. c #9F745D",
"R. c #96735D",
"E. c #876E5C",
"W. c #A1785C",
"Q. c #817265",
"!. c #9D7260",
"~. c #9B7E6B",
"^. c #A07461",
"/. c #AD8D72",
"(. c #9D8C74",
"). c #C39B7D",
"_. c #D6997E",
"`. c #D89A7E",
"'. c #D0967C",
"]. c #3C5A81",
"[. c #405C80",
"{. c #A89483",
"}. c #B2A287",
"|. c #C39D81",
" X c #D99C81",
".X c #D59A81",
"XX c #C7A789",
"oX c #DDA68C",
"OX c #DEA88D",
"+X c #D5A687",
"@X c #CDB38F",
"#X c #DEB18C",
"$X c #D3BC8F",
"%X c #C8AE93",
"&X c #CAB393",
"*X c #D4B697",
"=X c #DCA790",
"-X c #E3AF8C",
";X c #E2B28D",
":X c #E2B392",
">X c #E7BB98",
",X c #C8B6A5",
"<X c #E9BEA6",
"1X c #DAC599",
"2X c #D2C08D",
"3X c #F3C69F",
"4X c #F1C89F",
"5X c #DDC3AE",
"6X c #ECC6AD",
"7X c #EBC7AE",
"8X c #F3C6A1",
"9X c #F5CCA6",
"0X c #F0C6AA",
"qX c #F5CEA9",
"wX c #EECAB2",
"eX c #EBC7B1",
"rX c #F2CCB3",
"tX c #F4CFB8",
"yX c #F3D1B6",
"uX c #F4D5B6",
/* pixels */
"v.m m m m m m m m m m m m m m m m m m m m m m m m m m m m m m m m m m m m m m m m m m m m m m m m m m m m m m m m m m m m m m m.",
">                                                                                                                             B ",
">                                                                                                                             B ",
">     . = < < 4 5 2 2 5 2 <                                                                   .   + 5 5 5 5 5 5 2 < 2 2 +     B ",
">     = q.e.t.H.J.L.L.L.J.7.                                                                      5 K.K.K.K.K.L.H.e.r.0.f     B ",
">     < q.e.t.H.J.L.L.J.J.7.                                                                      5 L.L.L.L.L.L.H.e.r.0.7     B ",
"n     < q.e.t.H.J.r.5 5 5 <       w 3.+.+.+.#.#.#.+.+.+.+.+.+.#.+.+.+.+.+.+.+.+.+.+.+.+.+.u       X 5 4 4 W L.L.H.e.r.e.7     B ",
">     < q.r.t.H.J.7.              r <.>.*.>.>.>.>.>.>.>.>.>.>.>.>.>.*.>.>.>.>.*.*.*.*.*.*. .              T L.L.H.r.r.0.7     B ",
">     < q.r.t.H.J.7.              r <.>.>.>.>.<.<.>.<.>.>.<.<.>.>.<.>.>.>.<.>.>.*.*.*.>.>.N               T L.L.H.r.r.0.7     B ",
">     < q.r.C T T V       O r w w { >.*.*.>.>.>.>.>.>.>.>.>.>.>.>.>.>.>.>.<.>.>.*.*.>.&.>.o.w w w &       f T T T ^ r.0.7     B ",
">     < q.r.              & 2.*.*.*.*.*.>.>.>.>.>.>.>.>.>.>.>.>.>.>.>.>.>.>.>.>.<.>.>.*.&.&.&.<.*. .              V e.0.7     B ",
">     < q.e.              & >.$.=.*.*.*.*.>.>.>.>.>.>.>.>.>.>.>.>.>.>.>.<.<.>.>.*.*.*.*.&.*.*.=.$. .              V r.0.7     B ",
"n     < q.e.              & *.*.$.$.$.*.=.=.=.=.*.*.*.*.*.*.*.*.*.*.*.*.*.*.*.*.*.*.*.*.$.$.$.=.*. .              V r.0.f     B ",
">     < q.e.              $ [ ] ] ] ] ] ] ] ] ] ] ] ] ] ] ] ] ] ] ] ] ] ] ] ] ] ] ] ] ] ] ] ] ] ` t               V r.0.f     B ",
">     < q.e.              % ] _ _ _ ` ` ` ` ` ` ` ` ` ` ` ` ` ` _ _ _ ` ` ` ` ` ` ` ` ` _ _ _ ' ` t               V r.0.f     B ",
">     < q.e.              $ } ' _ _ ] ] ] ] ] ] ] ] ] ] ] ] ] ] ] ] ] ] ` ] ] ] ' ] ] ] ] ' ] ] ' y               V r.0.7     B ",
">     < q.e.      O u i i t 0 & 0 9 9 9 0 0 0 0 0 0 0 0 0 0 0 0 0 0 0 & & & & & & & & & & & & & & t i i u &       V r.0.7     B ",
">     = 6.0.      $ } ] ] t                                                                       q ' ] ' &       g e.6.5     B ",
"x     + H F       $ } ] ] i                                                                       q ] ] ' &       3 F H <     B ",
"s     + H F       O u y y r       X h 8 h h 7 7 7 7 5 5 5 5 h h h j j h h h h h h h h f j #       0 u u y $       3 G H <     B ",
"x     + H F                       @ ) / ( / R R R R R R R R i.i.i.i.i.e.w.w.e.e.e.w.i.w.i.h                       3 F H <     B ",
"s     # q.q.                      @ ) ( ( / R R R R R R H E w.i.i.i.i.i.i.i.i.i.w.i.i.q.w.h                       f 6.^ 2     B ",
"n     < G.J.        . . . o : : : h V.p.p.p.P P P W u.u.u.u.V.U.U.U.U.U.U.a.8.8.8.p.Y.I.Y.Y : : : , X X o .       k e.0.5     B ",
"n     < G.J.      X K L C 8.#X+X+X*XwXwXwX%X. . . M.7X7X7X7X7X7XeXeXeX7XeXD.. . . M.7X7X7X<XXXXX+X/.E E W 5       k e.q.7     B ",
"s     < G.H.      o C A A u.>X;X;X>XtXtXyX,X      M.rXrXrXrXrXrXrXrXrXrXrXF.      M.rXrXrX0X#X;X;X).W ^ / 5       k e.q.7     B ",
">     < G.H.      o C L P u.>X;X;X>XtXtXyX,X      M.wXrXrXrXrXrXrXrXrXrXrXF.      M.rXrXrX0X#X;X;X).E ^ ^ 5       V e.0.7     B ",
">     < G.H.      : R.W.W./.;X;X;X>XtXtXyX,X      M.wXrXrXrXrXrXrXrXrXrXrXF.      M.wXrXrX6X#X;X;X+XT.W.W.U       V e.q.7     B ",
">     < G.H.      d #X:X:X;X;X;X;X>XyXtXrX,X.     M.wXrXrXrXrXrXrXrXrX0XrXQ.      M.wXrXrX0X#X;X;X;X;X;X:X5.      k e.0.7     B ",
">     = t.y.      d #X;X;X;X;X;X;X>XrXrXyX,X.     n.wXrXrXrXrXrXrXrXrXrXwXQ.      M.wXrXrX0X#X;X;X;X;X;X:X5.      V e.0.7     B ",
"6     = q.e.g g g I S.S.N.E.:X;X;X>XrXrXrX5XD.D.F.{.wXrXrXrXrXrXrXrXrXrXrX}.Z.Z.D.{.wXrXrX0X;X;X-XXXN.A.S.Y g g g E e.6.7     B ",
"e     = q.e.e.e.e.6.=     M >X;X;X>XtXrXrXtXwXwXwXrXrXrXrXrXrXrXrXrXrXrXrXwXwXwXwXwXrX0XwX6X;X;X-X/.      V e.e.e.e.e.6.7     B ",
"n     = q.e.e.e.e.6.=     M >X;X;X>XtXrXrXrXrXrXrXrXrXrXrXrXrXrXrXrXrXrXrXrX0XrXwXwXrX0X6X0X-X;X;X/.      V e.e.e.e.e.6.1     B ",
"n     = q.e.e.e.e.6.5 = = M XX|.).XX6X6X6XwXrXrXrXrXrXrXrXrXrXrXrXrXrXrXrXrXrXrXrXrX6X<X<X*X|.).).~.= = = S e.e.e.e.e.6.5     B ",
"n     # 0.e.e.e.e.e.e.e.e.E X X X j '._._.:XrXrXrXrXrXrXrXrXrXrXrXrXrXrXrXrXrXrXrXrX+X.X_.B.o X X 5 e.e.e.e.e.e.e.e.e.q.5     B ",
"s     = 0.e.e.e.e.e.e.e.e.E       8 '._._.:XtXrXrXrXrXrXrXrXrXrXrXrXrXrXrXrXrXrXrXrX+X X Xu.      2 e.e.e.e.e.e.e.e.e.q.1     B ",
"n     = r.t.t.t.t.t.t.t.t.8.      8 .X`. X:XyXyXyXyXtXrXrXrXrXrXrXrXrXrXrXtXyXtXrXyX+X+X XC.      4 y.y.y.y.y.y.y.y.y.r.7     B ",
"e     = G.J.H.J.H.i.j j j M  .{ { l U U U ! 4.4.4.E.=XOXOXOXOXOXOXOXOXOXOX~.b.b.b.b.~ ~ ~ O.' ' u r j j j W H.L.H.H.J.G.f     B ",
">     = G.J.H.H.H.7.      0 *.=.$. .              ~ '._._._._._.`.`.`.`._.V.               .+.#.+.0       C H.H.K.L.L.G.f     B ",
"n     = H.J.L.L.J.7.      0 <.$.*. .              ~ '._.`.`.`.`.`.`.`. X`.V.               .3.@.#.w       D L.L.L.L.L.G.f     B ",
"s     + ^ 6.^ 6.6.H & - & t O.o.o.N % % % % & & & U !.W.^.^.!.!.T.T.T.T.!.5.& ; & & % % $ u o.X.o.t & - ; k G G G J J J <     B ",
">     X F F       & :.$.$.o.      $ } ` ] | $.$.$.u                       y 1.$.$.+.] ] ` y       u $.$.*.y       f G H <     B ",
"n     X F F       & >.=.=.o.      $ ] ` ] X.$.$.$.u                       u 1.*.$.+.` ] ` y       u $.$.>.y       f G H <     B ",
"n     X J J o @ @ d s.2.2.+.      & ` ` ] X.$.*.*. .% % * * % % O O % % %  .$.*.$.+.` ] ` y       u 2.>.2.l o o o V 6.^ 2     B ",
"n       = < ,X*X*X1X1X1X1X}.      & ] ` ] X.=.$.$.$.#.@.@.@.+.+.+.+.@.$.=.=.$.*.=.#.` ] ` y       n.$X$X2X$X@X@X*XA.= = .     B ",
"n         . uX9X9XqXqX9X9XXX      & } ` ] X.*.*.=.=.*.*.=.*.=.=.=.=.=.=.=.=.=.*.=.#.` ] ` y       N.8X3X3X3X3X3X9XZ.          B ",
"n         . uX9XqXqXqX9X9XXX      & ] ] ] X.*.*.*.*.*.=.=.=.*.*.*.*.=.=.=.*.=.*.=.+.` ] ` t       N.8X3X3X3X3X3X9XZ.          B ",
"n         . uXqXqXqX9X9X9XXX      & ] ] ` X.*.*.*.=.=.=.=.=.*.*.*.*.=.=.=.=.=.*.=.+.` ] ` t       N.8X8X8X8X8X8X8XZ.          B ",
"n         . uX9XqXqXqX9X9XXX      & ` ] ] o.*.*.*.*.*.*.$.$.$.$.=.=.=.=.=.=.=.=.*.+.] ] ` t       N.8X3X3X3X3X3X4XZ.          B ",
"n           uXqXqXqXqXqXqXXX      & ] ` ` X.>.%.%.$.$.*.*.*.*.*.*.*.$.=.=.=.=.$.$.+.` ] ] t       N.8X3X8X8X8X8X9XZ.          B ",
"s     . = = &X%X%X%X%X%X%X(.      ; ......O.j.-.-.-.-.-.-.-.-.-.-.-.-.-.-.-.-.-.-.;.......y       n.*X@X@X@X@X@X@XA.@ @ .     B ",
"s     @ e.r.                      z z.z.z.z.l.l.l.k.k.k.k.k.k.k.k.k.k.k.k.k.k.l.l.l.l.z.z.d.                      g e.q.<     B ",
"s     @ e.e.                      z x.z.l.z.z.l.l.l.k.k.k.k.k.k.k.k.k.k.k.l.l.l.l.l.l.l.z.d.                      g e.q.<     B ",
"n     @ e.e.                      z z.z.z.z.z.z.z.l.l.l.l.l.k.k.k.k.c.c.l.l.l.l.l.l.l.l.z.d.                      k e.q.<     B ",
"n     @ e.e.C S S C S S C g       z ].x.z.x.x.z.z.h.v v v v v v v v c c c g.x.z.x.x.x.z.x.d.      @ C C C C C V C E e.q.<     B ",
"s     # e.e.e.e.e.e.e.e.e.E       z ].x.x.].x.x.x.f.                      b x.z.x.x.x.z.x.d.      2 e.e.e.e.e.e.e.e.e.q.<     B ",
"6     # e.e.e.e.e.e.e.e.e.E       z [.].x.x.x.x.x.f.                      b ].x.x.x.x.].x.d.      2 r.e.e.e.e.e.e.e.e.q.<     B ",
">     @ q.0.0.0.0.0.0.e.e.E       , v.Q Q Q Q Q Q m       @ g V V 2       6 4.v.v.v.v.v.Q m       < 0.0.0.0.0.0.0.0.0.6.<     B ",
"e     + F G G F G F F F G Z       @ W R R R R R R j       < F F F a       5 E R E E E E R j       = G F F F F F F F F H =     B ",
"e     + H F F F F F F F F Z       @ / E W W W W W j       < F F F a       5 W W E E W E W j       = F F F F F F F F F H =     B ",
">     + F G F F F F F F F Z       @ T I I T T I I 8       < G F F f       4 K K K K C K K 5       = G G G F F F F F G H =     B ",
">     . 3 f p p p p p p p 1                               + 3 3 3 <                               X 3 3 3 3 3 3 3 3 3 3 X     B ",
">                                                                                                                             B ",
">                                                                                                                             B ",
">                                                                                                                             B "
};
