/* XPM */
static char *_1a244cb20db460ff459dae19423105fUWUqkt8dBY5TPA9z[] = {
/* columns rows colors chars-per-pixel */
"64 64 159 2 ",
"   c #010101",
".  c #080807",
"X  c #0C0C0C",
"o  c #100F10",
"O  c #141414",
"+  c #181717",
"@  c #1C1C1C",
"#  c #201F1F",
"$  c #252424",
"%  c #282727",
"&  c #282728",
"*  c #2D2D2D",
"=  c #302F2F",
"-  c #302F30",
";  c #353435",
":  c #383737",
">  c #383837",
",  c #383738",
"<  c #3D3C3C",
"1  c #3D3C3D",
"2  c #3E3C3D",
"3  c #3E3D3D",
"4  c #3F3D3D",
"5  c #3F3E3E",
"6  c #3F3E3F",
"7  c #3F3F3F",
"8  c #3C3A3B",
"9  c #403E3F",
"0  c #413F3F",
"q  c #403E3F",
"w  c #423F40",
"e  c #434242",
"r  c #434243",
"t  c #444242",
"y  c #454444",
"u  c #464444",
"i  c #474545",
"p  c #474546",
"a  c #474646",
"s  c #484646",
"d  c #484747",
"f  c #494747",
"g  c #484647",
"h  c #474847",
"j  c #484847",
"k  c #474748",
"l  c #494748",
"z  c #484748",
"x  c #494848",
"c  c #4A4848",
"v  c #4A4948",
"b  c #4A4849",
"n  c #4A4949",
"m  c #4B494A",
"M  c #4B4A4A",
"N  c #4A4949",
"B  c #514F50",
"V  c #535051",
"C  c #525151",
"Z  c #535151",
"A  c #535152",
"S  c #535153",
"D  c #535252",
"F  c #545152",
"G  c #545153",
"H  c #545252",
"J  c #545253",
"K  c #555253",
"L  c #545353",
"P  c #555353",
"I  c #565353",
"U  c #545254",
"Y  c #555254",
"T  c #545354",
"R  c #555354",
"E  c #565354",
"W  c #555454",
"Q  c #565454",
"!  c #565455",
"~  c #575455",
"^  c #565555",
"/  c #575555",
"(  c #565456",
")  c #575456",
"_  c #575556",
"`  c #575657",
"'  c #555354",
"]  c #585555",
"[  c #585556",
"{  c #585557",
"}  c #585657",
"|  c #595657",
" . c #585757",
".. c #585656",
"X. c #585658",
"o. c #595658",
"O. c #595758",
"+. c #5A5758",
"@. c #595858",
"#. c #5A5858",
"$. c #5A5859",
"%. c #5B5859",
"&. c #5B5959",
"*. c #5B595A",
"=. c #5C595A",
"-. c #5C595B",
";. c #5C5A5A",
":. c #5C5A5B",
">. c #5D5A5B",
",. c #5D5B5B",
"<. c #5D5B5C",
"1. c #5E5C5C",
"2. c #5E5D5D",
"3. c #5F5D5E",
"4. c #605E5E",
"5. c #615F60",
"6. c #646464",
"7. c #646465",
"8. c #646565",
"9. c #666565",
"0. c #676566",
"q. c #646364",
"w. c #686666",
"e. c #686667",
"r. c #696667",
"t. c #686767",
"y. c #696767",
"u. c #686667",
"i. c #696668",
"p. c #686768",
"a. c #696768",
"s. c #6A6768",
"d. c #6A6769",
"f. c #6B6769",
"g. c #696768",
"h. c #696868",
"j. c #6A6868",
"k. c #6B6968",
"l. c #6A6869",
"z. c #6B6869",
"x. c #6A6969",
"c. c #6B6969",
"v. c #6B696A",
"b. c #6B6A6A",
"n. c #6C696A",
"m. c #6C6A6A",
"M. c #6D6A6A",
"N. c #6C6A6B",
"B. c #6C6B6B",
"V. c #6D6B6B",
"C. c #6E6B6B",
"Z. c #6D6B6C",
"A. c #6D6C6C",
"S. c #6E6C6C",
"D. c #6E6D6C",
"F. c #6E6C6D",
"G. c #6B6969",
"H. c gray48",
"J. c #8B8B8A",
/* pixels */
"H.& & & & & & & & & & & & & & & & & & & & & & & & & & & & & & & & & & & & & & & & & & & & & & & & & & & & & & & & & & & & & & & ",
"7.                                                                                                                              ",
"7.                                                                                                                              ",
"7.    . $ $ $ $ $ % @ X X X @ $ $ $ $ $ $ $ $ $ $ $ % % % % % % % % % % % $ $ O X X X % % % % % % % % % % % % % % @ # # @       ",
"7.    O V.y.y.y.a.y.| * = * H a.y.y.a.y.a.a.y.y.y.a.a.a.y.y.a.y.y.a.a.a.a.a.y.e * * * j.a.a.y.y.y.y.y.y.y.y.y.7.7.H H H s       ",
"7.    O S.j.j.j.j.j.#.* * * E j.j.j.j.j.j.j.j.j.j.j.j.j.j.j.j.j.j.j.j.j.j.j.a.e * * * Z.j.a.j.j.j.j.j.j.j.j.j.a.y.Q H E m       ",
"7.    O V.V.V.V.V.j.#.* * * E V.V.j.j.j.j.V.j.V.j.j.j.j.j.j.j.j.j.j.j.j.j.j.j.e * * - S.j.j.j.j.j.j.j.j.j.j.j.j.j.Q H E m       ",
"7.    X Q H H H H C l * * * i C C C C C C H H H H H H H H H H C H H H H H H C < * * = E H H H H H H H H H H H H H H E H m       ",
"7.    X Q E E E E H m * * * i E E E Q Q E E E E E E E E E E E E E E Q E E E E 2 * * * | E E Q E E E E E E E E E E E E E m       ",
"7.    X Q E E E E E m * * * i E E Q E E E E E E H E E E E E E E Q Q E E H E E 2 * * * | E E E E E E H E E E E E E E H E m       ",
"7.    X | E E E H E m * * * s E E E E E E E E E E E E E E E E E E E E E E E E 8 * * * | H E E E E E E E E E E Q E E E H s       ",
"7.    X Q E E H E E i % & & 0 E E H E H E E E E E H E E H E E E E E E E E E H ; & & & Q H H H E E E E E E E E E E E H H t       ",
"7.    X Q E E H H E i % & & 2 E E E E H E E E E E E E E E E E E E H E E E E E ; % % % Q E H H E E E E H E E H E E E H H 2       ",
"7.    X #.| | Q | | l % & & 0 | | | | | | | X.| | | | | | | | | | | | | | X.X.; % % & :.| | | | | | | | Q | | Q | | | | :       ",
"7.    . : ; ; ; ; ; ; % & & * ; ; ; ; ; ; ; ; ; ; ; ; ; ; ; ; ; ; ; ; ; ; ; ; * % % & ; ; ; ; ; ; ; ; ; ; ; ; ; ; ; ; ; %       ",
"7.    . ; * * * * * * % & % & * * * * * * * * * * * * * * * * * * * * * * * * & % % % - * * * * * * * * * * * * * * * * $       ",
"7.    . ; * * * * * * % & & & * * * * * * * * * * * * * * * * * * * * * * * * & % % % = * * * * * * * * * * * * * * * * $       ",
"7.    X 0 < 2 < 8 8 8 ; ; ; , 8 8 8 8 8 8 8 8 8 < = * * - < 8 8 8 < < 8 8 8 8 : ; ; ; < 8 8 8 8 8 2 ; * * ; 2 2 2 2 2 2 *       ",
"7.    O V.j.j.j.j.j.j.j.a.j.j.j.j.j.j.j.j.j.j.j.Z.; * * 8 V.j.j.j.j.j.j.a.j.j.a.a.a.y.j.j.j.j.j.j.S.8 * = ; a.j.j.j.j.j.s       ",
"7.    O V.j.j.j.j.j.j.j.j.j.j.j.j.j.j.j.j.j.j.j.V.; = * 8 V.j.j.j.j.j.j.j.j.j.j.j.j.j.j.j.j.j.j.j.S.8 * * ; j.j.j.j.j.j.m       ",
"7.    O V.j.j.j.j.j.j.j.j.j.j.j.j.j.j.j.j.j.j.j.S.; = = 8 V.j.j.j.j.j.j.j.j.j.j.j.j.j.j.j.j.j.j.j.S.8 * * : j.j.j.j.j.j.m       ",
"7.    O 1.:.:.#.:.#.#.#.#.#.:.#.#.:.:.:.:.:.:.#.<.; = * ; :.:.:.:.:.#.#.#.#.:.#.#.#.:.:.:.:.:.:.:.1.; * * ; #.#.#.:.#.#.2       ",
"7.    O Q H E H H H H H H H E H H E E E E E E E Q ; * * ; Q E E E E E H E H E E H H H E H E H E E | ; * * ; E H E H E H :       ",
"7.    O Q E E H E H H H H H E E E E E E E E E E Q ; * * ; Q E E E E E H E E E E H H E E E E E E E | ; * * ; Q H H H H H >       ",
"7.    O | E H E E H H H H H E E E E H E E E E E Q : * * ; Q E E E E H H H E H H E E E E E E E E E Q ; * * ; E H Q H H H :       ",
"7.    O Q E H H H H H H H H H H E E E E E E E E | * & & * | E E E E E E E E E E H H H H H E E E E E ; & & = H H E H H H ;       ",
"7.    O | E E H E H E E H H H H H E H E E H E H | * & & * | Q Q E E E H E E E E H E E E E E E H E Q - * & * C H E H H H ;       ",
"7.    O #.Q Q Q Q Q Q Q Q Q Q Q Q Q Q Q Q Q Q Q X.* & & * | Q Q Q Q Q Q Q Q Q Q Q Q Q Q Q Q Q Q Q Q ; * * = H Q Q E E E ;       ",
"7.    X : : ; ; ; ; ; : ; ; : : : ; : ; : : : , 8 * * * * 8 , : , : : , , , , , : , : , : , ; ; ; , * * * * , , ; ; ; ; $       ",
"7.    . * * * * * * * * * * * * * * * * * * * * * * * * * * * * * * * * * * * * * * * * * * * * * * * * * * * * * * * * @       ",
"7.    . * * * * * * * * * * * * * * * * * * * * * * * * * * * * * * * * * * * * * * * * * * * * * * * * * * * * * * * * @       ",
"7.    X 8 8 8 8 8 8 ; * * * ; 8 8 8 8 8 8 8 8 8 8 8 8 8 8 8 8 8 8 8 8 8 8 8 8 ; * * * 8 8 8 8 8 8 8 8 8 8 8 8 8 8 ; ; ; $       ",
"7.    O V.j.j.j.j.j.Q * * * Q j.j.j.j.j.j.j.j.j.j.j.j.j.j.j.j.j.j.j.j.j.j.j.j.e * * - S.V.j.j.j.j.j.j.j.j.j.V.j.V.Q H H 8       ",
"7.    + j.j.j.j.j.j.Q * * * E j.j.j.j.j.j.j.j.j.j.j.j.j.j.j.j.j.j.j.j.j.j.j.a.t * * = Z.j.j.j.j.j.j.j.j.j.j.j.j.V.| H H 8       ",
"7.    @ V.j.j.j.V.j.| * * * H j.j.j.j.j.j.j.j.j.j.j.j.j.j.V.j.j.j.j.j.j.j.j.j.t * * - S.j.j.j.j.V.j.j.j.j.j.V.j.V.| E H 8       ",
"7.    O 4.4.4.4.4.4.C * * * M 4.4.4.4.4.4.4.4.4.4.1.4.4.4.4.4.4.4.4.4.4.4.4.1.w * * = q.4.4.4.4.4.4.4.1.4.4.4.4.4.Q E H 8       ",
"7.    O Q H H H H H m * * * i E Q Q Q Q E E Q E E H E E H E E E E E E E Q E E 2 * * * | E E E E E E E H E E E E E E H H 8       ",
"7.    O E E H H H H M * = * i E Q E E E E E Q E E H E E E E E H E E E E E E E 2 * * * | E E E E E Q E H H E E E Q H H H 8       ",
"7.    O E H H E E H m * * * i E H E E E Q E E E E H E E H E H E E E E E E E E 2 * * * | E H H E E H E H H E E H E E E E 8       ",
"7.    O Q H E E H H w % % & t E E H E E E E E E E H H H H E H E E E H E E E E : & & & Q E H H E E E H H H E E E E E H H :       ",
"7.    O Q E E H H E 0 % % % 0 E E H E E E H E E E E H H H E H E E E E H Q Q Q ; & & % Q H H E H H E H H H H E H E E H H ;       ",
"7.    O Q E H H H H 0 % & % w E H E E E E E E E E H H H H E E E E H E E Q Q H ; % & % E H E E H H Q E H H H H H H E H E ;       ",
"7.    X 2 2 2 2 2 2 ; & & % ; 2 2 2 2 2 2 2 2 2 2 2 2 2 2 2 2 2 2 2 2 2 2 2 2 * & & % 2 2 2 2 2 2 2 2 2 2 2 2 2 2 2 2 < %       ",
"7.    . - * * * * * * % & % * * * * * * * * * * * * * * * * * * * * * * * * * & & & & * * * * * * * * * * * * * * * * * @       ",
"7.    . - * * * * * * % & % * * * * * * * * * * * * * * * * * * * * * * * * * & & & & = * * * * * * * * * * * * * * * * @       ",
"7.    . * & & & & & & $ $ $ % & & & & & & & & & & * * * * & & & & & & & & & & % $ $ $ & & & & & & & * * * * * & & & & & @       ",
"7.    O a.y.y.y.y.y.y.7.7.7.7.y.y.j.j.a.j.j.j.j.S.; * * 8 S.j.j.j.j.j.j.j.j.j.a.a.j.a.j.j.j.j.j.j.S.8 * * ; y.7.y.7.7.7.i       ",
"7.    @ j.j.j.j.j.j.j.j.j.j.j.j.j.j.j.j.j.j.j.j.V.; * * 8 V.j.j.j.j.j.j.j.j.j.j.j.j.j.j.j.j.j.j.j.V.8 * * ; j.j.j.a.j.j.s       ",
"7.    @ V.j.j.j.j.j.j.j.j.j.j.j.j.j.j.j.j.a.j.j.Z.; - - 8 V.j.j.j.j.j.j.j.j.j.j.j.j.j.j.j.j.j.j.j.V.8 * * ; j.a.j.j.j.a.s       ",
"7.    O q.q.5.5.4.5.4.5.5.5.5.5.5.5.5.5.5.4.4.5.q.; - - ; q.5.4.5.q.4.4.5.5.q.q.q.4.5.5.5.5.5.5.4.q.; * * ; 5.q.5.5.q.q.0       ",
"7.    O H H H E H E E H E E E H H E H E E H H H E ; * * ; H H H H H H H H H E E E H H H E E H H H Q ; * * ; C H H H H H :       ",
"7.    O H H E E E E E E H E Q H H E E H E E E H Q ; * * ; H H E E H E E H H E E E E H H E E H E E Q ; * * ; H H H H H H 8       ",
"7.    O Q H E E E E E E E H E E E E E E E E E H Q : * * ; Q E E E H H H E H E E H E H E E E H H H E ; * * ; H H E E E E 8       ",
"7.    O Q E E E E H H E E E H E E E H E H E E H Q * & & * Q H E E E E E H E Q E E E E E E E E E E C ; & & - C E H H E E 8       ",
"7.    O E E E E H H H H H H H H H E E H H H E E | & % % & Q H E E E E E E E Q E E E E E E E E H Q C * & & = H H E E H H 8       ",
"7.    O Q E H H E E E H E H H H H E E E E E E E | & & & & Q H E H H E E E E E E E E H E E E E E E C = & & * H H H H H H 8       ",
"6.    o m l s s s l s s s s s s s s s s s s s s l * & & * i i i i i i i i s s s s i i s i i i s s u * & & * i l l l m m ;       ",
"7.    X * * & * * * * * * * * * * * * * * * * * * * & & & * * * * * * * * * * * * * * * * * * * * * * * * * * * * * * * @       ",
"7.    X * * * * * * * * * * * * * * * * * * * * * * & & & * * * * * * * * * * * * * * * * * * * * * * * * * * * * * * * @       ",
"7.    X * * * * * * * * * * * * * * * * * * * * * * * * * * * * * * * * * * * * * * * * * * * * * * * * * * * * * * * * @       ",
"7.      . . . . . . . . . . . . . . . . . . . . . . . . . . . . . . . . . .   . . . . . . .   . . . . . . . . . . . . .         ",
"7.                                                                                                                              ",
"7.                                                                                                                              ",
"J.i s l i i i i i i i i i i i i i i i i i i i s m j i i i i l i i i i k h j l i i i l s l j m m m h i i i s i m j i s m l l i i "
};
